M48
; DRILL file {KiCad (5.1.0)-1} date 3/27/2019 10:24:08 PM
; FORMAT={-:-/ absolute / metric / decimal}
; #@! TF.CreationDate,2019-03-27T22:24:08+02:00
; #@! TF.GenerationSoftware,Kicad,Pcbnew,(5.1.0)-1
FMAT,2
METRIC
T1C0.400
T2C0.500
T3C0.700
T4C0.800
T5C1.500
T6C2.499
T7C2.499
%
G90
G05
T1
X55.372Y-38.227
X60.65Y-42.24
X63.77Y-39.75
X65.659Y-48.641
X66.167Y-53.467
X66.294Y-29.845
X66.421Y-31.877
X67.564Y-48.641
X68.834Y-39.497
X77.47Y-38.226
X130.302Y-107.061
X132.715Y-113.665
X140.081Y-105.791
X140.462Y-110.744
X141.986Y-118.999
X142.24Y-120.777
X146.05Y-115.265
X146.05Y-116.065
X146.152Y-120.904
X148.565Y-109.398
X150.876Y-99.974
X151.765Y-114.046
X154.153Y-109.093
X157.099Y-120.015
X160.274Y-112.014
X163.322Y-120.015
X163.601Y-104.445
X164.084Y-110.109
X164.465Y-117.221
X189.611Y-38.226
X201.981Y-76.58
X202.057Y-110.414
X202.184Y-57.531
X202.569Y-111.028
X203.098Y-111.633
X203.581Y-112.293
X204.445Y-94.614
T2
X49.758Y-82.803
X49.758Y-88.003
X51.8Y-82.803
X51.8Y-88.003
X53.638Y-83.564
X53.638Y-87.241
X54.4Y-85.403
X70.9Y-56.803
X71.574Y-55.176
X71.574Y-58.429
X73.2Y-54.503
X73.2Y-59.103
X74.826Y-55.176
X74.826Y-58.429
X75.5Y-56.803
X175.0Y-73.603
X175.0Y-78.203
X176.2Y-73.603
X176.2Y-78.203
X177.4Y-73.603
X177.4Y-78.203
X237.3Y-111.803
X237.3Y-116.403
X238.5Y-111.803
X238.5Y-116.403
X239.7Y-111.803
X239.7Y-116.403
X306.85Y-54.503
X306.85Y-59.103
X308.05Y-54.503
X308.05Y-59.103
X309.25Y-54.486
X309.25Y-59.103
X326.6Y-85.403
X327.361Y-83.564
X327.361Y-87.241
X329.2Y-82.803
X329.2Y-88.003
X331.242Y-82.803
X331.242Y-88.003
T4
X134.258Y-108.14
X134.258Y-110.14
X134.258Y-112.14
X136.258Y-108.14
X136.258Y-110.14
X136.258Y-112.14
T5
X280.0Y-35.6
X280.0Y-40.6
X291.5Y-32.1
X291.5Y-44.1
X122.839Y-73.701
X122.839Y-78.701
X134.339Y-70.201
X134.339Y-82.201
X265.713Y-111.801
X265.713Y-116.801
X277.213Y-108.301
X277.213Y-120.301
X308.575Y-35.6
X308.575Y-40.6
X320.075Y-32.1
X320.075Y-44.1
X175.225Y-54.65
X175.225Y-59.65
X186.725Y-51.15
X186.725Y-63.15
X79.975Y-111.801
X79.975Y-116.801
X91.475Y-108.301
X91.475Y-120.301
X53.781Y-73.7
X53.781Y-78.7
X65.281Y-70.2
X65.281Y-82.2
X313.341Y-111.801
X313.341Y-116.801
X324.841Y-108.301
X324.841Y-120.301
X151.413Y-92.751
X151.413Y-97.751
X162.913Y-89.251
X162.913Y-101.251
X318.102Y-92.751
X318.102Y-97.751
X329.602Y-89.251
X329.602Y-101.251
X208.563Y-92.751
X208.563Y-97.751
X220.063Y-89.251
X220.063Y-101.251
X108.55Y-35.6
X108.55Y-40.6
X120.05Y-32.1
X120.05Y-44.1
X94.263Y-92.751
X94.263Y-97.751
X105.763Y-89.251
X105.763Y-101.251
X56.163Y-111.801
X56.163Y-116.801
X67.663Y-108.301
X67.663Y-120.301
X89.5Y-35.6
X89.5Y-40.6
X101.0Y-32.1
X101.0Y-44.1
X213.325Y-54.65
X213.325Y-59.65
X224.825Y-51.15
X224.825Y-63.15
X165.7Y-35.6
X165.7Y-40.6
X177.2Y-32.1
X177.2Y-44.1
X179.989Y-70.201
X179.989Y-82.201
X191.489Y-73.701
X191.489Y-78.701
X58.545Y-73.7
X58.545Y-78.7
X70.045Y-70.2
X70.045Y-82.2
X275.239Y-73.701
X275.239Y-78.701
X286.739Y-70.201
X286.739Y-82.201
X194.275Y-54.65
X194.275Y-59.65
X205.775Y-51.15
X205.775Y-63.15
X160.939Y-73.701
X160.939Y-78.701
X172.439Y-70.201
X172.439Y-82.201
X118.075Y-54.65
X118.075Y-59.65
X129.575Y-51.15
X129.575Y-63.15
X218.089Y-73.701
X218.089Y-78.701
X229.589Y-70.201
X229.589Y-82.201
X170.463Y-92.751
X170.463Y-97.751
X181.963Y-89.251
X181.963Y-101.251
X53.781Y-73.7
X53.781Y-78.7
X65.281Y-70.2
X65.281Y-82.2
X156.175Y-54.65
X156.175Y-59.65
X167.675Y-51.15
X167.675Y-63.15
X246.663Y-92.751
X246.663Y-97.751
X258.163Y-89.251
X258.163Y-101.251
X70.45Y-44.1
X81.95Y-35.6
X81.95Y-40.6
X103.789Y-73.701
X103.789Y-78.701
X115.289Y-70.201
X115.289Y-82.201
X184.75Y-35.6
X184.75Y-40.6
X196.25Y-32.1
X196.25Y-44.1
X251.425Y-54.65
X251.425Y-59.65
X262.925Y-51.15
X262.925Y-63.15
X113.313Y-92.751
X113.313Y-97.751
X124.813Y-89.251
X124.813Y-101.251
X127.6Y-35.6
X127.6Y-40.6
X139.1Y-32.1
X139.1Y-44.1
X232.375Y-54.65
X232.375Y-59.65
X243.875Y-51.15
X243.875Y-63.15
X132.363Y-92.751
X132.363Y-97.751
X143.863Y-89.251
X143.863Y-101.251
X146.65Y-35.6
X146.65Y-40.6
X158.15Y-32.1
X158.15Y-44.1
X270.475Y-54.65
X270.475Y-59.65
X281.975Y-51.15
X281.975Y-63.15
X237.139Y-73.701
X237.139Y-78.701
X248.639Y-70.201
X248.639Y-82.201
X291.908Y-92.751
X291.908Y-97.751
X303.408Y-89.251
X303.408Y-101.251
X75.213Y-92.751
X75.213Y-97.751
X86.713Y-89.251
X86.713Y-101.251
X99.025Y-54.65
X99.025Y-59.65
X110.525Y-51.15
X110.525Y-63.15
X84.739Y-73.701
X84.739Y-78.701
X96.239Y-70.201
X96.239Y-82.201
X103.788Y-111.801
X103.788Y-116.801
X115.288Y-108.301
X115.288Y-120.301
X137.125Y-54.65
X137.125Y-59.65
X148.625Y-51.15
X148.625Y-63.15
X265.713Y-92.751
X265.713Y-97.751
X277.213Y-89.251
X277.213Y-101.251
X53.782Y-92.751
X53.782Y-97.751
X65.282Y-89.251
X65.282Y-101.251
X79.975Y-54.65
X79.975Y-59.65
X91.475Y-51.15
X91.475Y-63.15
X289.525Y-111.801
X289.525Y-116.801
X301.025Y-108.301
X301.025Y-120.301
X189.513Y-92.751
X189.513Y-97.751
X201.013Y-89.251
X201.013Y-101.251
X227.613Y-92.751
X227.613Y-97.751
X239.113Y-89.251
X239.113Y-101.251
X51.4Y-35.6
X51.4Y-40.6
X62.9Y-44.1
X241.9Y-35.6
X241.9Y-40.6
X253.4Y-32.1
X253.4Y-44.1
X294.289Y-73.701
X294.289Y-78.701
X305.789Y-70.201
X305.789Y-82.201
X56.162Y-54.65
X56.162Y-59.65
X67.662Y-51.15
X67.662Y-63.15
X203.8Y-35.6
X203.8Y-40.6
X215.3Y-32.1
X215.3Y-44.1
X289.525Y-54.65
X289.525Y-59.65
X301.025Y-51.15
X301.025Y-63.15
X222.85Y-35.6
X222.85Y-40.6
X234.35Y-32.1
X234.35Y-44.1
X141.889Y-73.701
X141.889Y-78.701
X153.389Y-70.201
X153.389Y-82.201
X301.434Y-92.75
X301.434Y-97.75
X312.934Y-89.25
X312.934Y-101.25
X256.189Y-73.701
X256.189Y-78.701
X267.689Y-70.201
X267.689Y-82.201
X184.75Y-111.801
X184.75Y-116.801
X196.25Y-108.301
X196.25Y-120.301
X260.95Y-35.6
X260.95Y-40.6
X272.45Y-32.1
X272.45Y-44.1
X199.039Y-73.701
X199.039Y-78.701
X210.539Y-70.201
X210.539Y-82.201
T7
X73.2Y-56.803
T3
G00X62.55Y-30.09
M15
G01X62.55Y-31.29
M16
G05
G00X62.55Y-34.59
M15
G01X62.55Y-35.79
M16
G05
G00X69.85Y-30.09
M15
G01X69.85Y-31.29
M16
G05
G00X69.85Y-34.59
M15
G01X69.85Y-35.79
M16
G05
T5
G00X311.965Y-60.923
M15
G01X314.465Y-60.923
M16
G05
G00X315.471Y-72.416
M15
G01X317.971Y-72.416
M16
G05
G00X320.474Y-72.416
M15
G01X322.974Y-72.416
M16
G05
G00X323.98Y-60.926
M15
G01X326.48Y-60.926
M16
G05
T6
G00X174.949Y-75.903
M15
G01X177.451Y-75.903
M16
G05
G00X237.249Y-114.103
M15
G01X239.751Y-114.103
M16
G05
G00X306.799Y-56.803
M15
G01X309.301Y-56.803
M16
G05
T0
M30
