G04 #@! TF.GenerationSoftware,KiCad,Pcbnew,(5.1.0)-1*
G04 #@! TF.CreationDate,2019-03-27T22:24:01+02:00*
G04 #@! TF.ProjectId,PROJECT,50524f4a-4543-4542-9e6b-696361645f70,rev?*
G04 #@! TF.SameCoordinates,Original*
G04 #@! TF.FileFunction,Paste,Bot*
G04 #@! TF.FilePolarity,Positive*
%FSLAX46Y46*%
G04 Gerber Fmt 4.6, Leading zero omitted, Abs format (unit mm)*
G04 Created by KiCad (PCBNEW (5.1.0)-1) date 2019-03-27 22:24:01*
%MOMM*%
%LPD*%
G04 APERTURE LIST*
%ADD10R,0.500000X2.250000*%
%ADD11C,0.100000*%
%ADD12C,1.150000*%
%ADD13R,1.200000X0.900000*%
%ADD14R,1.800000X1.100000*%
%ADD15R,0.700000X0.600000*%
%ADD16R,0.700000X1.000000*%
%ADD17R,0.406400X1.524000*%
%ADD18R,1.524000X0.406400*%
%ADD19C,1.300000*%
G04 APERTURE END LIST*
D10*
X67800000Y-35190000D03*
X67000000Y-35190000D03*
X66200000Y-35190000D03*
X65400000Y-35190000D03*
X64600000Y-35190000D03*
D11*
G36*
X160919305Y-109676904D02*
G01*
X160943573Y-109680504D01*
X160967372Y-109686465D01*
X160990471Y-109694730D01*
X161012650Y-109705220D01*
X161033693Y-109717832D01*
X161053399Y-109732447D01*
X161071577Y-109748923D01*
X161088053Y-109767101D01*
X161102668Y-109786807D01*
X161115280Y-109807850D01*
X161125770Y-109830029D01*
X161134035Y-109853128D01*
X161139996Y-109876927D01*
X161143596Y-109901195D01*
X161144800Y-109925699D01*
X161144800Y-110825701D01*
X161143596Y-110850205D01*
X161139996Y-110874473D01*
X161134035Y-110898272D01*
X161125770Y-110921371D01*
X161115280Y-110943550D01*
X161102668Y-110964593D01*
X161088053Y-110984299D01*
X161071577Y-111002477D01*
X161053399Y-111018953D01*
X161033693Y-111033568D01*
X161012650Y-111046180D01*
X160990471Y-111056670D01*
X160967372Y-111064935D01*
X160943573Y-111070896D01*
X160919305Y-111074496D01*
X160894801Y-111075700D01*
X160244799Y-111075700D01*
X160220295Y-111074496D01*
X160196027Y-111070896D01*
X160172228Y-111064935D01*
X160149129Y-111056670D01*
X160126950Y-111046180D01*
X160105907Y-111033568D01*
X160086201Y-111018953D01*
X160068023Y-111002477D01*
X160051547Y-110984299D01*
X160036932Y-110964593D01*
X160024320Y-110943550D01*
X160013830Y-110921371D01*
X160005565Y-110898272D01*
X159999604Y-110874473D01*
X159996004Y-110850205D01*
X159994800Y-110825701D01*
X159994800Y-109925699D01*
X159996004Y-109901195D01*
X159999604Y-109876927D01*
X160005565Y-109853128D01*
X160013830Y-109830029D01*
X160024320Y-109807850D01*
X160036932Y-109786807D01*
X160051547Y-109767101D01*
X160068023Y-109748923D01*
X160086201Y-109732447D01*
X160105907Y-109717832D01*
X160126950Y-109705220D01*
X160149129Y-109694730D01*
X160172228Y-109686465D01*
X160196027Y-109680504D01*
X160220295Y-109676904D01*
X160244799Y-109675700D01*
X160894801Y-109675700D01*
X160919305Y-109676904D01*
X160919305Y-109676904D01*
G37*
D12*
X160569800Y-110375700D03*
D11*
G36*
X162969305Y-109676904D02*
G01*
X162993573Y-109680504D01*
X163017372Y-109686465D01*
X163040471Y-109694730D01*
X163062650Y-109705220D01*
X163083693Y-109717832D01*
X163103399Y-109732447D01*
X163121577Y-109748923D01*
X163138053Y-109767101D01*
X163152668Y-109786807D01*
X163165280Y-109807850D01*
X163175770Y-109830029D01*
X163184035Y-109853128D01*
X163189996Y-109876927D01*
X163193596Y-109901195D01*
X163194800Y-109925699D01*
X163194800Y-110825701D01*
X163193596Y-110850205D01*
X163189996Y-110874473D01*
X163184035Y-110898272D01*
X163175770Y-110921371D01*
X163165280Y-110943550D01*
X163152668Y-110964593D01*
X163138053Y-110984299D01*
X163121577Y-111002477D01*
X163103399Y-111018953D01*
X163083693Y-111033568D01*
X163062650Y-111046180D01*
X163040471Y-111056670D01*
X163017372Y-111064935D01*
X162993573Y-111070896D01*
X162969305Y-111074496D01*
X162944801Y-111075700D01*
X162294799Y-111075700D01*
X162270295Y-111074496D01*
X162246027Y-111070896D01*
X162222228Y-111064935D01*
X162199129Y-111056670D01*
X162176950Y-111046180D01*
X162155907Y-111033568D01*
X162136201Y-111018953D01*
X162118023Y-111002477D01*
X162101547Y-110984299D01*
X162086932Y-110964593D01*
X162074320Y-110943550D01*
X162063830Y-110921371D01*
X162055565Y-110898272D01*
X162049604Y-110874473D01*
X162046004Y-110850205D01*
X162044800Y-110825701D01*
X162044800Y-109925699D01*
X162046004Y-109901195D01*
X162049604Y-109876927D01*
X162055565Y-109853128D01*
X162063830Y-109830029D01*
X162074320Y-109807850D01*
X162086932Y-109786807D01*
X162101547Y-109767101D01*
X162118023Y-109748923D01*
X162136201Y-109732447D01*
X162155907Y-109717832D01*
X162176950Y-109705220D01*
X162199129Y-109694730D01*
X162222228Y-109686465D01*
X162246027Y-109680504D01*
X162270295Y-109676904D01*
X162294799Y-109675700D01*
X162944801Y-109675700D01*
X162969305Y-109676904D01*
X162969305Y-109676904D01*
G37*
D12*
X162619800Y-110375700D03*
D11*
G36*
X144528905Y-105549404D02*
G01*
X144553173Y-105553004D01*
X144576972Y-105558965D01*
X144600071Y-105567230D01*
X144622250Y-105577720D01*
X144643293Y-105590332D01*
X144662999Y-105604947D01*
X144681177Y-105621423D01*
X144697653Y-105639601D01*
X144712268Y-105659307D01*
X144724880Y-105680350D01*
X144735370Y-105702529D01*
X144743635Y-105725628D01*
X144749596Y-105749427D01*
X144753196Y-105773695D01*
X144754400Y-105798199D01*
X144754400Y-106698201D01*
X144753196Y-106722705D01*
X144749596Y-106746973D01*
X144743635Y-106770772D01*
X144735370Y-106793871D01*
X144724880Y-106816050D01*
X144712268Y-106837093D01*
X144697653Y-106856799D01*
X144681177Y-106874977D01*
X144662999Y-106891453D01*
X144643293Y-106906068D01*
X144622250Y-106918680D01*
X144600071Y-106929170D01*
X144576972Y-106937435D01*
X144553173Y-106943396D01*
X144528905Y-106946996D01*
X144504401Y-106948200D01*
X143854399Y-106948200D01*
X143829895Y-106946996D01*
X143805627Y-106943396D01*
X143781828Y-106937435D01*
X143758729Y-106929170D01*
X143736550Y-106918680D01*
X143715507Y-106906068D01*
X143695801Y-106891453D01*
X143677623Y-106874977D01*
X143661147Y-106856799D01*
X143646532Y-106837093D01*
X143633920Y-106816050D01*
X143623430Y-106793871D01*
X143615165Y-106770772D01*
X143609204Y-106746973D01*
X143605604Y-106722705D01*
X143604400Y-106698201D01*
X143604400Y-105798199D01*
X143605604Y-105773695D01*
X143609204Y-105749427D01*
X143615165Y-105725628D01*
X143623430Y-105702529D01*
X143633920Y-105680350D01*
X143646532Y-105659307D01*
X143661147Y-105639601D01*
X143677623Y-105621423D01*
X143695801Y-105604947D01*
X143715507Y-105590332D01*
X143736550Y-105577720D01*
X143758729Y-105567230D01*
X143781828Y-105558965D01*
X143805627Y-105553004D01*
X143829895Y-105549404D01*
X143854399Y-105548200D01*
X144504401Y-105548200D01*
X144528905Y-105549404D01*
X144528905Y-105549404D01*
G37*
D12*
X144179400Y-106248200D03*
D11*
G36*
X142478905Y-105549404D02*
G01*
X142503173Y-105553004D01*
X142526972Y-105558965D01*
X142550071Y-105567230D01*
X142572250Y-105577720D01*
X142593293Y-105590332D01*
X142612999Y-105604947D01*
X142631177Y-105621423D01*
X142647653Y-105639601D01*
X142662268Y-105659307D01*
X142674880Y-105680350D01*
X142685370Y-105702529D01*
X142693635Y-105725628D01*
X142699596Y-105749427D01*
X142703196Y-105773695D01*
X142704400Y-105798199D01*
X142704400Y-106698201D01*
X142703196Y-106722705D01*
X142699596Y-106746973D01*
X142693635Y-106770772D01*
X142685370Y-106793871D01*
X142674880Y-106816050D01*
X142662268Y-106837093D01*
X142647653Y-106856799D01*
X142631177Y-106874977D01*
X142612999Y-106891453D01*
X142593293Y-106906068D01*
X142572250Y-106918680D01*
X142550071Y-106929170D01*
X142526972Y-106937435D01*
X142503173Y-106943396D01*
X142478905Y-106946996D01*
X142454401Y-106948200D01*
X141804399Y-106948200D01*
X141779895Y-106946996D01*
X141755627Y-106943396D01*
X141731828Y-106937435D01*
X141708729Y-106929170D01*
X141686550Y-106918680D01*
X141665507Y-106906068D01*
X141645801Y-106891453D01*
X141627623Y-106874977D01*
X141611147Y-106856799D01*
X141596532Y-106837093D01*
X141583920Y-106816050D01*
X141573430Y-106793871D01*
X141565165Y-106770772D01*
X141559204Y-106746973D01*
X141555604Y-106722705D01*
X141554400Y-106698201D01*
X141554400Y-105798199D01*
X141555604Y-105773695D01*
X141559204Y-105749427D01*
X141565165Y-105725628D01*
X141573430Y-105702529D01*
X141583920Y-105680350D01*
X141596532Y-105659307D01*
X141611147Y-105639601D01*
X141627623Y-105621423D01*
X141645801Y-105604947D01*
X141665507Y-105590332D01*
X141686550Y-105577720D01*
X141708729Y-105567230D01*
X141731828Y-105558965D01*
X141755627Y-105553004D01*
X141779895Y-105549404D01*
X141804399Y-105548200D01*
X142454401Y-105548200D01*
X142478905Y-105549404D01*
X142478905Y-105549404D01*
G37*
D12*
X142129400Y-106248200D03*
D11*
G36*
X144400305Y-118732004D02*
G01*
X144424573Y-118735604D01*
X144448372Y-118741565D01*
X144471471Y-118749830D01*
X144493650Y-118760320D01*
X144514693Y-118772932D01*
X144534399Y-118787547D01*
X144552577Y-118804023D01*
X144569053Y-118822201D01*
X144583668Y-118841907D01*
X144596280Y-118862950D01*
X144606770Y-118885129D01*
X144615035Y-118908228D01*
X144620996Y-118932027D01*
X144624596Y-118956295D01*
X144625800Y-118980799D01*
X144625800Y-119880801D01*
X144624596Y-119905305D01*
X144620996Y-119929573D01*
X144615035Y-119953372D01*
X144606770Y-119976471D01*
X144596280Y-119998650D01*
X144583668Y-120019693D01*
X144569053Y-120039399D01*
X144552577Y-120057577D01*
X144534399Y-120074053D01*
X144514693Y-120088668D01*
X144493650Y-120101280D01*
X144471471Y-120111770D01*
X144448372Y-120120035D01*
X144424573Y-120125996D01*
X144400305Y-120129596D01*
X144375801Y-120130800D01*
X143725799Y-120130800D01*
X143701295Y-120129596D01*
X143677027Y-120125996D01*
X143653228Y-120120035D01*
X143630129Y-120111770D01*
X143607950Y-120101280D01*
X143586907Y-120088668D01*
X143567201Y-120074053D01*
X143549023Y-120057577D01*
X143532547Y-120039399D01*
X143517932Y-120019693D01*
X143505320Y-119998650D01*
X143494830Y-119976471D01*
X143486565Y-119953372D01*
X143480604Y-119929573D01*
X143477004Y-119905305D01*
X143475800Y-119880801D01*
X143475800Y-118980799D01*
X143477004Y-118956295D01*
X143480604Y-118932027D01*
X143486565Y-118908228D01*
X143494830Y-118885129D01*
X143505320Y-118862950D01*
X143517932Y-118841907D01*
X143532547Y-118822201D01*
X143549023Y-118804023D01*
X143567201Y-118787547D01*
X143586907Y-118772932D01*
X143607950Y-118760320D01*
X143630129Y-118749830D01*
X143653228Y-118741565D01*
X143677027Y-118735604D01*
X143701295Y-118732004D01*
X143725799Y-118730800D01*
X144375801Y-118730800D01*
X144400305Y-118732004D01*
X144400305Y-118732004D01*
G37*
D12*
X144050800Y-119430800D03*
D11*
G36*
X146450305Y-118732004D02*
G01*
X146474573Y-118735604D01*
X146498372Y-118741565D01*
X146521471Y-118749830D01*
X146543650Y-118760320D01*
X146564693Y-118772932D01*
X146584399Y-118787547D01*
X146602577Y-118804023D01*
X146619053Y-118822201D01*
X146633668Y-118841907D01*
X146646280Y-118862950D01*
X146656770Y-118885129D01*
X146665035Y-118908228D01*
X146670996Y-118932027D01*
X146674596Y-118956295D01*
X146675800Y-118980799D01*
X146675800Y-119880801D01*
X146674596Y-119905305D01*
X146670996Y-119929573D01*
X146665035Y-119953372D01*
X146656770Y-119976471D01*
X146646280Y-119998650D01*
X146633668Y-120019693D01*
X146619053Y-120039399D01*
X146602577Y-120057577D01*
X146584399Y-120074053D01*
X146564693Y-120088668D01*
X146543650Y-120101280D01*
X146521471Y-120111770D01*
X146498372Y-120120035D01*
X146474573Y-120125996D01*
X146450305Y-120129596D01*
X146425801Y-120130800D01*
X145775799Y-120130800D01*
X145751295Y-120129596D01*
X145727027Y-120125996D01*
X145703228Y-120120035D01*
X145680129Y-120111770D01*
X145657950Y-120101280D01*
X145636907Y-120088668D01*
X145617201Y-120074053D01*
X145599023Y-120057577D01*
X145582547Y-120039399D01*
X145567932Y-120019693D01*
X145555320Y-119998650D01*
X145544830Y-119976471D01*
X145536565Y-119953372D01*
X145530604Y-119929573D01*
X145527004Y-119905305D01*
X145525800Y-119880801D01*
X145525800Y-118980799D01*
X145527004Y-118956295D01*
X145530604Y-118932027D01*
X145536565Y-118908228D01*
X145544830Y-118885129D01*
X145555320Y-118862950D01*
X145567932Y-118841907D01*
X145582547Y-118822201D01*
X145599023Y-118804023D01*
X145617201Y-118787547D01*
X145636907Y-118772932D01*
X145657950Y-118760320D01*
X145680129Y-118749830D01*
X145703228Y-118741565D01*
X145727027Y-118735604D01*
X145751295Y-118732004D01*
X145775799Y-118730800D01*
X146425801Y-118730800D01*
X146450305Y-118732004D01*
X146450305Y-118732004D01*
G37*
D12*
X146100800Y-119430800D03*
D11*
G36*
X141979905Y-116496804D02*
G01*
X142004173Y-116500404D01*
X142027972Y-116506365D01*
X142051071Y-116514630D01*
X142073250Y-116525120D01*
X142094293Y-116537732D01*
X142113999Y-116552347D01*
X142132177Y-116568823D01*
X142148653Y-116587001D01*
X142163268Y-116606707D01*
X142175880Y-116627750D01*
X142186370Y-116649929D01*
X142194635Y-116673028D01*
X142200596Y-116696827D01*
X142204196Y-116721095D01*
X142205400Y-116745599D01*
X142205400Y-117645601D01*
X142204196Y-117670105D01*
X142200596Y-117694373D01*
X142194635Y-117718172D01*
X142186370Y-117741271D01*
X142175880Y-117763450D01*
X142163268Y-117784493D01*
X142148653Y-117804199D01*
X142132177Y-117822377D01*
X142113999Y-117838853D01*
X142094293Y-117853468D01*
X142073250Y-117866080D01*
X142051071Y-117876570D01*
X142027972Y-117884835D01*
X142004173Y-117890796D01*
X141979905Y-117894396D01*
X141955401Y-117895600D01*
X141305399Y-117895600D01*
X141280895Y-117894396D01*
X141256627Y-117890796D01*
X141232828Y-117884835D01*
X141209729Y-117876570D01*
X141187550Y-117866080D01*
X141166507Y-117853468D01*
X141146801Y-117838853D01*
X141128623Y-117822377D01*
X141112147Y-117804199D01*
X141097532Y-117784493D01*
X141084920Y-117763450D01*
X141074430Y-117741271D01*
X141066165Y-117718172D01*
X141060204Y-117694373D01*
X141056604Y-117670105D01*
X141055400Y-117645601D01*
X141055400Y-116745599D01*
X141056604Y-116721095D01*
X141060204Y-116696827D01*
X141066165Y-116673028D01*
X141074430Y-116649929D01*
X141084920Y-116627750D01*
X141097532Y-116606707D01*
X141112147Y-116587001D01*
X141128623Y-116568823D01*
X141146801Y-116552347D01*
X141166507Y-116537732D01*
X141187550Y-116525120D01*
X141209729Y-116514630D01*
X141232828Y-116506365D01*
X141256627Y-116500404D01*
X141280895Y-116496804D01*
X141305399Y-116495600D01*
X141955401Y-116495600D01*
X141979905Y-116496804D01*
X141979905Y-116496804D01*
G37*
D12*
X141630400Y-117195600D03*
D11*
G36*
X139929905Y-116496804D02*
G01*
X139954173Y-116500404D01*
X139977972Y-116506365D01*
X140001071Y-116514630D01*
X140023250Y-116525120D01*
X140044293Y-116537732D01*
X140063999Y-116552347D01*
X140082177Y-116568823D01*
X140098653Y-116587001D01*
X140113268Y-116606707D01*
X140125880Y-116627750D01*
X140136370Y-116649929D01*
X140144635Y-116673028D01*
X140150596Y-116696827D01*
X140154196Y-116721095D01*
X140155400Y-116745599D01*
X140155400Y-117645601D01*
X140154196Y-117670105D01*
X140150596Y-117694373D01*
X140144635Y-117718172D01*
X140136370Y-117741271D01*
X140125880Y-117763450D01*
X140113268Y-117784493D01*
X140098653Y-117804199D01*
X140082177Y-117822377D01*
X140063999Y-117838853D01*
X140044293Y-117853468D01*
X140023250Y-117866080D01*
X140001071Y-117876570D01*
X139977972Y-117884835D01*
X139954173Y-117890796D01*
X139929905Y-117894396D01*
X139905401Y-117895600D01*
X139255399Y-117895600D01*
X139230895Y-117894396D01*
X139206627Y-117890796D01*
X139182828Y-117884835D01*
X139159729Y-117876570D01*
X139137550Y-117866080D01*
X139116507Y-117853468D01*
X139096801Y-117838853D01*
X139078623Y-117822377D01*
X139062147Y-117804199D01*
X139047532Y-117784493D01*
X139034920Y-117763450D01*
X139024430Y-117741271D01*
X139016165Y-117718172D01*
X139010204Y-117694373D01*
X139006604Y-117670105D01*
X139005400Y-117645601D01*
X139005400Y-116745599D01*
X139006604Y-116721095D01*
X139010204Y-116696827D01*
X139016165Y-116673028D01*
X139024430Y-116649929D01*
X139034920Y-116627750D01*
X139047532Y-116606707D01*
X139062147Y-116587001D01*
X139078623Y-116568823D01*
X139096801Y-116552347D01*
X139116507Y-116537732D01*
X139137550Y-116525120D01*
X139159729Y-116514630D01*
X139182828Y-116506365D01*
X139206627Y-116500404D01*
X139230895Y-116496804D01*
X139255399Y-116495600D01*
X139905401Y-116495600D01*
X139929905Y-116496804D01*
X139929905Y-116496804D01*
G37*
D12*
X139580400Y-117195600D03*
D11*
G36*
X161013505Y-118554204D02*
G01*
X161037773Y-118557804D01*
X161061572Y-118563765D01*
X161084671Y-118572030D01*
X161106850Y-118582520D01*
X161127893Y-118595132D01*
X161147599Y-118609747D01*
X161165777Y-118626223D01*
X161182253Y-118644401D01*
X161196868Y-118664107D01*
X161209480Y-118685150D01*
X161219970Y-118707329D01*
X161228235Y-118730428D01*
X161234196Y-118754227D01*
X161237796Y-118778495D01*
X161239000Y-118802999D01*
X161239000Y-119703001D01*
X161237796Y-119727505D01*
X161234196Y-119751773D01*
X161228235Y-119775572D01*
X161219970Y-119798671D01*
X161209480Y-119820850D01*
X161196868Y-119841893D01*
X161182253Y-119861599D01*
X161165777Y-119879777D01*
X161147599Y-119896253D01*
X161127893Y-119910868D01*
X161106850Y-119923480D01*
X161084671Y-119933970D01*
X161061572Y-119942235D01*
X161037773Y-119948196D01*
X161013505Y-119951796D01*
X160989001Y-119953000D01*
X160338999Y-119953000D01*
X160314495Y-119951796D01*
X160290227Y-119948196D01*
X160266428Y-119942235D01*
X160243329Y-119933970D01*
X160221150Y-119923480D01*
X160200107Y-119910868D01*
X160180401Y-119896253D01*
X160162223Y-119879777D01*
X160145747Y-119861599D01*
X160131132Y-119841893D01*
X160118520Y-119820850D01*
X160108030Y-119798671D01*
X160099765Y-119775572D01*
X160093804Y-119751773D01*
X160090204Y-119727505D01*
X160089000Y-119703001D01*
X160089000Y-118802999D01*
X160090204Y-118778495D01*
X160093804Y-118754227D01*
X160099765Y-118730428D01*
X160108030Y-118707329D01*
X160118520Y-118685150D01*
X160131132Y-118664107D01*
X160145747Y-118644401D01*
X160162223Y-118626223D01*
X160180401Y-118609747D01*
X160200107Y-118595132D01*
X160221150Y-118582520D01*
X160243329Y-118572030D01*
X160266428Y-118563765D01*
X160290227Y-118557804D01*
X160314495Y-118554204D01*
X160338999Y-118553000D01*
X160989001Y-118553000D01*
X161013505Y-118554204D01*
X161013505Y-118554204D01*
G37*
D12*
X160664000Y-119253000D03*
D11*
G36*
X158963505Y-118554204D02*
G01*
X158987773Y-118557804D01*
X159011572Y-118563765D01*
X159034671Y-118572030D01*
X159056850Y-118582520D01*
X159077893Y-118595132D01*
X159097599Y-118609747D01*
X159115777Y-118626223D01*
X159132253Y-118644401D01*
X159146868Y-118664107D01*
X159159480Y-118685150D01*
X159169970Y-118707329D01*
X159178235Y-118730428D01*
X159184196Y-118754227D01*
X159187796Y-118778495D01*
X159189000Y-118802999D01*
X159189000Y-119703001D01*
X159187796Y-119727505D01*
X159184196Y-119751773D01*
X159178235Y-119775572D01*
X159169970Y-119798671D01*
X159159480Y-119820850D01*
X159146868Y-119841893D01*
X159132253Y-119861599D01*
X159115777Y-119879777D01*
X159097599Y-119896253D01*
X159077893Y-119910868D01*
X159056850Y-119923480D01*
X159034671Y-119933970D01*
X159011572Y-119942235D01*
X158987773Y-119948196D01*
X158963505Y-119951796D01*
X158939001Y-119953000D01*
X158288999Y-119953000D01*
X158264495Y-119951796D01*
X158240227Y-119948196D01*
X158216428Y-119942235D01*
X158193329Y-119933970D01*
X158171150Y-119923480D01*
X158150107Y-119910868D01*
X158130401Y-119896253D01*
X158112223Y-119879777D01*
X158095747Y-119861599D01*
X158081132Y-119841893D01*
X158068520Y-119820850D01*
X158058030Y-119798671D01*
X158049765Y-119775572D01*
X158043804Y-119751773D01*
X158040204Y-119727505D01*
X158039000Y-119703001D01*
X158039000Y-118802999D01*
X158040204Y-118778495D01*
X158043804Y-118754227D01*
X158049765Y-118730428D01*
X158058030Y-118707329D01*
X158068520Y-118685150D01*
X158081132Y-118664107D01*
X158095747Y-118644401D01*
X158112223Y-118626223D01*
X158130401Y-118609747D01*
X158150107Y-118595132D01*
X158171150Y-118582520D01*
X158193329Y-118572030D01*
X158216428Y-118563765D01*
X158240227Y-118557804D01*
X158264495Y-118554204D01*
X158288999Y-118553000D01*
X158939001Y-118553000D01*
X158963505Y-118554204D01*
X158963505Y-118554204D01*
G37*
D12*
X158614000Y-119253000D03*
D11*
G36*
X140938505Y-112382004D02*
G01*
X140962773Y-112385604D01*
X140986572Y-112391565D01*
X141009671Y-112399830D01*
X141031850Y-112410320D01*
X141052893Y-112422932D01*
X141072599Y-112437547D01*
X141090777Y-112454023D01*
X141107253Y-112472201D01*
X141121868Y-112491907D01*
X141134480Y-112512950D01*
X141144970Y-112535129D01*
X141153235Y-112558228D01*
X141159196Y-112582027D01*
X141162796Y-112606295D01*
X141164000Y-112630799D01*
X141164000Y-113530801D01*
X141162796Y-113555305D01*
X141159196Y-113579573D01*
X141153235Y-113603372D01*
X141144970Y-113626471D01*
X141134480Y-113648650D01*
X141121868Y-113669693D01*
X141107253Y-113689399D01*
X141090777Y-113707577D01*
X141072599Y-113724053D01*
X141052893Y-113738668D01*
X141031850Y-113751280D01*
X141009671Y-113761770D01*
X140986572Y-113770035D01*
X140962773Y-113775996D01*
X140938505Y-113779596D01*
X140914001Y-113780800D01*
X140263999Y-113780800D01*
X140239495Y-113779596D01*
X140215227Y-113775996D01*
X140191428Y-113770035D01*
X140168329Y-113761770D01*
X140146150Y-113751280D01*
X140125107Y-113738668D01*
X140105401Y-113724053D01*
X140087223Y-113707577D01*
X140070747Y-113689399D01*
X140056132Y-113669693D01*
X140043520Y-113648650D01*
X140033030Y-113626471D01*
X140024765Y-113603372D01*
X140018804Y-113579573D01*
X140015204Y-113555305D01*
X140014000Y-113530801D01*
X140014000Y-112630799D01*
X140015204Y-112606295D01*
X140018804Y-112582027D01*
X140024765Y-112558228D01*
X140033030Y-112535129D01*
X140043520Y-112512950D01*
X140056132Y-112491907D01*
X140070747Y-112472201D01*
X140087223Y-112454023D01*
X140105401Y-112437547D01*
X140125107Y-112422932D01*
X140146150Y-112410320D01*
X140168329Y-112399830D01*
X140191428Y-112391565D01*
X140215227Y-112385604D01*
X140239495Y-112382004D01*
X140263999Y-112380800D01*
X140914001Y-112380800D01*
X140938505Y-112382004D01*
X140938505Y-112382004D01*
G37*
D12*
X140589000Y-113080800D03*
D11*
G36*
X142988505Y-112382004D02*
G01*
X143012773Y-112385604D01*
X143036572Y-112391565D01*
X143059671Y-112399830D01*
X143081850Y-112410320D01*
X143102893Y-112422932D01*
X143122599Y-112437547D01*
X143140777Y-112454023D01*
X143157253Y-112472201D01*
X143171868Y-112491907D01*
X143184480Y-112512950D01*
X143194970Y-112535129D01*
X143203235Y-112558228D01*
X143209196Y-112582027D01*
X143212796Y-112606295D01*
X143214000Y-112630799D01*
X143214000Y-113530801D01*
X143212796Y-113555305D01*
X143209196Y-113579573D01*
X143203235Y-113603372D01*
X143194970Y-113626471D01*
X143184480Y-113648650D01*
X143171868Y-113669693D01*
X143157253Y-113689399D01*
X143140777Y-113707577D01*
X143122599Y-113724053D01*
X143102893Y-113738668D01*
X143081850Y-113751280D01*
X143059671Y-113761770D01*
X143036572Y-113770035D01*
X143012773Y-113775996D01*
X142988505Y-113779596D01*
X142964001Y-113780800D01*
X142313999Y-113780800D01*
X142289495Y-113779596D01*
X142265227Y-113775996D01*
X142241428Y-113770035D01*
X142218329Y-113761770D01*
X142196150Y-113751280D01*
X142175107Y-113738668D01*
X142155401Y-113724053D01*
X142137223Y-113707577D01*
X142120747Y-113689399D01*
X142106132Y-113669693D01*
X142093520Y-113648650D01*
X142083030Y-113626471D01*
X142074765Y-113603372D01*
X142068804Y-113579573D01*
X142065204Y-113555305D01*
X142064000Y-113530801D01*
X142064000Y-112630799D01*
X142065204Y-112606295D01*
X142068804Y-112582027D01*
X142074765Y-112558228D01*
X142083030Y-112535129D01*
X142093520Y-112512950D01*
X142106132Y-112491907D01*
X142120747Y-112472201D01*
X142137223Y-112454023D01*
X142155401Y-112437547D01*
X142175107Y-112422932D01*
X142196150Y-112410320D01*
X142218329Y-112399830D01*
X142241428Y-112391565D01*
X142265227Y-112385604D01*
X142289495Y-112382004D01*
X142313999Y-112380800D01*
X142964001Y-112380800D01*
X142988505Y-112382004D01*
X142988505Y-112382004D01*
G37*
D12*
X142639000Y-113080800D03*
D11*
G36*
X147782210Y-104290102D02*
G01*
X147806435Y-104293695D01*
X147830191Y-104299646D01*
X147853249Y-104307896D01*
X147875387Y-104318367D01*
X147896393Y-104330957D01*
X147916063Y-104345545D01*
X147934208Y-104361992D01*
X147950655Y-104380137D01*
X147965243Y-104399807D01*
X147977833Y-104420813D01*
X147988304Y-104442951D01*
X147996554Y-104466009D01*
X148002505Y-104489765D01*
X148006098Y-104513990D01*
X148007300Y-104538450D01*
X148007300Y-105189350D01*
X148006098Y-105213810D01*
X148002505Y-105238035D01*
X147996554Y-105261791D01*
X147988304Y-105284849D01*
X147977833Y-105306987D01*
X147965243Y-105327993D01*
X147950655Y-105347663D01*
X147934208Y-105365808D01*
X147916063Y-105382255D01*
X147896393Y-105396843D01*
X147875387Y-105409433D01*
X147853249Y-105419904D01*
X147830191Y-105428154D01*
X147806435Y-105434105D01*
X147782210Y-105437698D01*
X147757750Y-105438900D01*
X146856850Y-105438900D01*
X146832390Y-105437698D01*
X146808165Y-105434105D01*
X146784409Y-105428154D01*
X146761351Y-105419904D01*
X146739213Y-105409433D01*
X146718207Y-105396843D01*
X146698537Y-105382255D01*
X146680392Y-105365808D01*
X146663945Y-105347663D01*
X146649357Y-105327993D01*
X146636767Y-105306987D01*
X146626296Y-105284849D01*
X146618046Y-105261791D01*
X146612095Y-105238035D01*
X146608502Y-105213810D01*
X146607300Y-105189350D01*
X146607300Y-104538450D01*
X146608502Y-104513990D01*
X146612095Y-104489765D01*
X146618046Y-104466009D01*
X146626296Y-104442951D01*
X146636767Y-104420813D01*
X146649357Y-104399807D01*
X146663945Y-104380137D01*
X146680392Y-104361992D01*
X146698537Y-104345545D01*
X146718207Y-104330957D01*
X146739213Y-104318367D01*
X146761351Y-104307896D01*
X146784409Y-104299646D01*
X146808165Y-104293695D01*
X146832390Y-104290102D01*
X146856850Y-104288900D01*
X147757750Y-104288900D01*
X147782210Y-104290102D01*
X147782210Y-104290102D01*
G37*
D12*
X147307300Y-104863900D03*
D11*
G36*
X147781805Y-102240104D02*
G01*
X147806073Y-102243704D01*
X147829872Y-102249665D01*
X147852971Y-102257930D01*
X147875150Y-102268420D01*
X147896193Y-102281032D01*
X147915899Y-102295647D01*
X147934077Y-102312123D01*
X147950553Y-102330301D01*
X147965168Y-102350007D01*
X147977780Y-102371050D01*
X147988270Y-102393229D01*
X147996535Y-102416328D01*
X148002496Y-102440127D01*
X148006096Y-102464395D01*
X148007300Y-102488899D01*
X148007300Y-103138901D01*
X148006096Y-103163405D01*
X148002496Y-103187673D01*
X147996535Y-103211472D01*
X147988270Y-103234571D01*
X147977780Y-103256750D01*
X147965168Y-103277793D01*
X147950553Y-103297499D01*
X147934077Y-103315677D01*
X147915899Y-103332153D01*
X147896193Y-103346768D01*
X147875150Y-103359380D01*
X147852971Y-103369870D01*
X147829872Y-103378135D01*
X147806073Y-103384096D01*
X147781805Y-103387696D01*
X147757301Y-103388900D01*
X146857299Y-103388900D01*
X146832795Y-103387696D01*
X146808527Y-103384096D01*
X146784728Y-103378135D01*
X146761629Y-103369870D01*
X146739450Y-103359380D01*
X146718407Y-103346768D01*
X146698701Y-103332153D01*
X146680523Y-103315677D01*
X146664047Y-103297499D01*
X146649432Y-103277793D01*
X146636820Y-103256750D01*
X146626330Y-103234571D01*
X146618065Y-103211472D01*
X146612104Y-103187673D01*
X146608504Y-103163405D01*
X146607300Y-103138901D01*
X146607300Y-102488899D01*
X146608504Y-102464395D01*
X146612104Y-102440127D01*
X146618065Y-102416328D01*
X146626330Y-102393229D01*
X146636820Y-102371050D01*
X146649432Y-102350007D01*
X146664047Y-102330301D01*
X146680523Y-102312123D01*
X146698701Y-102295647D01*
X146718407Y-102281032D01*
X146739450Y-102268420D01*
X146761629Y-102257930D01*
X146784728Y-102249665D01*
X146808527Y-102243704D01*
X146832795Y-102240104D01*
X146857299Y-102238900D01*
X147757301Y-102238900D01*
X147781805Y-102240104D01*
X147781805Y-102240104D01*
G37*
D12*
X147307300Y-102813900D03*
D11*
G36*
X155262105Y-102249104D02*
G01*
X155286373Y-102252704D01*
X155310172Y-102258665D01*
X155333271Y-102266930D01*
X155355450Y-102277420D01*
X155376493Y-102290032D01*
X155396199Y-102304647D01*
X155414377Y-102321123D01*
X155430853Y-102339301D01*
X155445468Y-102359007D01*
X155458080Y-102380050D01*
X155468570Y-102402229D01*
X155476835Y-102425328D01*
X155482796Y-102449127D01*
X155486396Y-102473395D01*
X155487600Y-102497899D01*
X155487600Y-103147901D01*
X155486396Y-103172405D01*
X155482796Y-103196673D01*
X155476835Y-103220472D01*
X155468570Y-103243571D01*
X155458080Y-103265750D01*
X155445468Y-103286793D01*
X155430853Y-103306499D01*
X155414377Y-103324677D01*
X155396199Y-103341153D01*
X155376493Y-103355768D01*
X155355450Y-103368380D01*
X155333271Y-103378870D01*
X155310172Y-103387135D01*
X155286373Y-103393096D01*
X155262105Y-103396696D01*
X155237601Y-103397900D01*
X154337599Y-103397900D01*
X154313095Y-103396696D01*
X154288827Y-103393096D01*
X154265028Y-103387135D01*
X154241929Y-103378870D01*
X154219750Y-103368380D01*
X154198707Y-103355768D01*
X154179001Y-103341153D01*
X154160823Y-103324677D01*
X154144347Y-103306499D01*
X154129732Y-103286793D01*
X154117120Y-103265750D01*
X154106630Y-103243571D01*
X154098365Y-103220472D01*
X154092404Y-103196673D01*
X154088804Y-103172405D01*
X154087600Y-103147901D01*
X154087600Y-102497899D01*
X154088804Y-102473395D01*
X154092404Y-102449127D01*
X154098365Y-102425328D01*
X154106630Y-102402229D01*
X154117120Y-102380050D01*
X154129732Y-102359007D01*
X154144347Y-102339301D01*
X154160823Y-102321123D01*
X154179001Y-102304647D01*
X154198707Y-102290032D01*
X154219750Y-102277420D01*
X154241929Y-102266930D01*
X154265028Y-102258665D01*
X154288827Y-102252704D01*
X154313095Y-102249104D01*
X154337599Y-102247900D01*
X155237601Y-102247900D01*
X155262105Y-102249104D01*
X155262105Y-102249104D01*
G37*
D12*
X154787600Y-102822900D03*
D11*
G36*
X155262510Y-104299102D02*
G01*
X155286735Y-104302695D01*
X155310491Y-104308646D01*
X155333549Y-104316896D01*
X155355687Y-104327367D01*
X155376693Y-104339957D01*
X155396363Y-104354545D01*
X155414508Y-104370992D01*
X155430955Y-104389137D01*
X155445543Y-104408807D01*
X155458133Y-104429813D01*
X155468604Y-104451951D01*
X155476854Y-104475009D01*
X155482805Y-104498765D01*
X155486398Y-104522990D01*
X155487600Y-104547450D01*
X155487600Y-105198350D01*
X155486398Y-105222810D01*
X155482805Y-105247035D01*
X155476854Y-105270791D01*
X155468604Y-105293849D01*
X155458133Y-105315987D01*
X155445543Y-105336993D01*
X155430955Y-105356663D01*
X155414508Y-105374808D01*
X155396363Y-105391255D01*
X155376693Y-105405843D01*
X155355687Y-105418433D01*
X155333549Y-105428904D01*
X155310491Y-105437154D01*
X155286735Y-105443105D01*
X155262510Y-105446698D01*
X155238050Y-105447900D01*
X154337150Y-105447900D01*
X154312690Y-105446698D01*
X154288465Y-105443105D01*
X154264709Y-105437154D01*
X154241651Y-105428904D01*
X154219513Y-105418433D01*
X154198507Y-105405843D01*
X154178837Y-105391255D01*
X154160692Y-105374808D01*
X154144245Y-105356663D01*
X154129657Y-105336993D01*
X154117067Y-105315987D01*
X154106596Y-105293849D01*
X154098346Y-105270791D01*
X154092395Y-105247035D01*
X154088802Y-105222810D01*
X154087600Y-105198350D01*
X154087600Y-104547450D01*
X154088802Y-104522990D01*
X154092395Y-104498765D01*
X154098346Y-104475009D01*
X154106596Y-104451951D01*
X154117067Y-104429813D01*
X154129657Y-104408807D01*
X154144245Y-104389137D01*
X154160692Y-104370992D01*
X154178837Y-104354545D01*
X154198507Y-104339957D01*
X154219513Y-104327367D01*
X154241651Y-104316896D01*
X154264709Y-104308646D01*
X154288465Y-104302695D01*
X154312690Y-104299102D01*
X154337150Y-104297900D01*
X155238050Y-104297900D01*
X155262510Y-104299102D01*
X155262510Y-104299102D01*
G37*
D12*
X154787600Y-104872900D03*
D13*
X55372000Y-38226000D03*
X55372000Y-34926000D03*
X77470000Y-38226000D03*
X77470000Y-34926000D03*
X85090000Y-34926000D03*
X85090000Y-38226000D03*
X104140000Y-38480000D03*
X104140000Y-35180000D03*
X123190000Y-35180000D03*
X123190000Y-38480000D03*
X142240000Y-38480000D03*
X142240000Y-35180000D03*
X161290000Y-35180000D03*
X161290000Y-38480000D03*
X180340000Y-38480000D03*
X180340000Y-35180000D03*
X199390000Y-35180000D03*
X199390000Y-38480000D03*
X218440000Y-38480000D03*
X218440000Y-35180000D03*
X237490000Y-35180000D03*
X237490000Y-38480000D03*
X256540000Y-38480000D03*
X256540000Y-35180000D03*
X275590000Y-35180000D03*
X275590000Y-38480000D03*
X303530000Y-38480000D03*
X303530000Y-35180000D03*
X52070000Y-54230000D03*
X52070000Y-57530000D03*
X83820000Y-57530000D03*
X83820000Y-54230000D03*
X93980000Y-54230000D03*
X93980000Y-57530000D03*
X113030000Y-57530000D03*
X113030000Y-54230000D03*
X132080000Y-54230000D03*
X132080000Y-57530000D03*
X151130000Y-54230000D03*
X151130000Y-57530000D03*
X170180000Y-57530000D03*
X170180000Y-54230000D03*
X189230000Y-54230000D03*
X189230000Y-57530000D03*
X208280000Y-57530000D03*
X208280000Y-54230000D03*
X227330000Y-54230000D03*
X227330000Y-57530000D03*
X246380000Y-57530000D03*
X246380000Y-54230000D03*
X265430000Y-57530000D03*
X265430000Y-54230000D03*
X284480000Y-54230000D03*
X284480000Y-57530000D03*
X297180000Y-61340000D03*
X297180000Y-58040000D03*
X62230000Y-76580000D03*
X62230000Y-73280000D03*
X80010000Y-73280000D03*
X80010000Y-76580000D03*
X99060000Y-76580000D03*
X99060000Y-73280000D03*
X118110000Y-73280000D03*
X118110000Y-76580000D03*
X137160000Y-76580000D03*
X137160000Y-73280000D03*
X156210000Y-73280000D03*
X156210000Y-76580000D03*
X186690000Y-73280000D03*
X186690000Y-76580000D03*
X203200000Y-73280000D03*
X203200000Y-76580000D03*
X213360000Y-76580000D03*
X213360000Y-73280000D03*
X232410000Y-76580000D03*
X232410000Y-73280000D03*
X251460000Y-76580000D03*
X251460000Y-73280000D03*
X270510000Y-73280000D03*
X270510000Y-76580000D03*
X289560000Y-76580000D03*
X289560000Y-73280000D03*
X57023000Y-91314000D03*
X57023000Y-94614000D03*
X70993000Y-94614000D03*
X70993000Y-91314000D03*
X90043000Y-94614000D03*
X90043000Y-91314000D03*
X109093000Y-94614000D03*
X109093000Y-91314000D03*
X128143000Y-94614000D03*
X128143000Y-91314000D03*
X147193000Y-94614000D03*
X147193000Y-91314000D03*
X166243000Y-91314000D03*
X166243000Y-94614000D03*
X185293000Y-91314000D03*
X185293000Y-94614000D03*
X204343000Y-91314000D03*
X204343000Y-94614000D03*
X223393000Y-94614000D03*
X223393000Y-91314000D03*
X242443000Y-94614000D03*
X242443000Y-91314000D03*
X261493000Y-91314000D03*
X261493000Y-94614000D03*
X286893000Y-91314000D03*
X286893000Y-94614000D03*
X304673000Y-94614000D03*
X304673000Y-91314000D03*
X59690000Y-111380000D03*
X59690000Y-114680000D03*
X83820000Y-111380000D03*
X83820000Y-114680000D03*
X106680000Y-111380000D03*
X106680000Y-114680000D03*
X187960000Y-111380000D03*
X187960000Y-114680000D03*
X269240000Y-114680000D03*
X269240000Y-111380000D03*
X293370000Y-111380000D03*
X293370000Y-114680000D03*
X317500000Y-111380000D03*
X317500000Y-114680000D03*
D11*
G36*
X59674505Y-34931204D02*
G01*
X59698773Y-34934804D01*
X59722572Y-34940765D01*
X59745671Y-34949030D01*
X59767850Y-34959520D01*
X59788893Y-34972132D01*
X59808599Y-34986747D01*
X59826777Y-35003223D01*
X59843253Y-35021401D01*
X59857868Y-35041107D01*
X59870480Y-35062150D01*
X59880970Y-35084329D01*
X59889235Y-35107428D01*
X59895196Y-35131227D01*
X59898796Y-35155495D01*
X59900000Y-35179999D01*
X59900000Y-35830001D01*
X59898796Y-35854505D01*
X59895196Y-35878773D01*
X59889235Y-35902572D01*
X59880970Y-35925671D01*
X59870480Y-35947850D01*
X59857868Y-35968893D01*
X59843253Y-35988599D01*
X59826777Y-36006777D01*
X59808599Y-36023253D01*
X59788893Y-36037868D01*
X59767850Y-36050480D01*
X59745671Y-36060970D01*
X59722572Y-36069235D01*
X59698773Y-36075196D01*
X59674505Y-36078796D01*
X59650001Y-36080000D01*
X58749999Y-36080000D01*
X58725495Y-36078796D01*
X58701227Y-36075196D01*
X58677428Y-36069235D01*
X58654329Y-36060970D01*
X58632150Y-36050480D01*
X58611107Y-36037868D01*
X58591401Y-36023253D01*
X58573223Y-36006777D01*
X58556747Y-35988599D01*
X58542132Y-35968893D01*
X58529520Y-35947850D01*
X58519030Y-35925671D01*
X58510765Y-35902572D01*
X58504804Y-35878773D01*
X58501204Y-35854505D01*
X58500000Y-35830001D01*
X58500000Y-35179999D01*
X58501204Y-35155495D01*
X58504804Y-35131227D01*
X58510765Y-35107428D01*
X58519030Y-35084329D01*
X58529520Y-35062150D01*
X58542132Y-35041107D01*
X58556747Y-35021401D01*
X58573223Y-35003223D01*
X58591401Y-34986747D01*
X58611107Y-34972132D01*
X58632150Y-34959520D01*
X58654329Y-34949030D01*
X58677428Y-34940765D01*
X58701227Y-34934804D01*
X58725495Y-34931204D01*
X58749999Y-34930000D01*
X59650001Y-34930000D01*
X59674505Y-34931204D01*
X59674505Y-34931204D01*
G37*
D12*
X59200000Y-35505000D03*
D11*
G36*
X59674505Y-36981204D02*
G01*
X59698773Y-36984804D01*
X59722572Y-36990765D01*
X59745671Y-36999030D01*
X59767850Y-37009520D01*
X59788893Y-37022132D01*
X59808599Y-37036747D01*
X59826777Y-37053223D01*
X59843253Y-37071401D01*
X59857868Y-37091107D01*
X59870480Y-37112150D01*
X59880970Y-37134329D01*
X59889235Y-37157428D01*
X59895196Y-37181227D01*
X59898796Y-37205495D01*
X59900000Y-37229999D01*
X59900000Y-37880001D01*
X59898796Y-37904505D01*
X59895196Y-37928773D01*
X59889235Y-37952572D01*
X59880970Y-37975671D01*
X59870480Y-37997850D01*
X59857868Y-38018893D01*
X59843253Y-38038599D01*
X59826777Y-38056777D01*
X59808599Y-38073253D01*
X59788893Y-38087868D01*
X59767850Y-38100480D01*
X59745671Y-38110970D01*
X59722572Y-38119235D01*
X59698773Y-38125196D01*
X59674505Y-38128796D01*
X59650001Y-38130000D01*
X58749999Y-38130000D01*
X58725495Y-38128796D01*
X58701227Y-38125196D01*
X58677428Y-38119235D01*
X58654329Y-38110970D01*
X58632150Y-38100480D01*
X58611107Y-38087868D01*
X58591401Y-38073253D01*
X58573223Y-38056777D01*
X58556747Y-38038599D01*
X58542132Y-38018893D01*
X58529520Y-37997850D01*
X58519030Y-37975671D01*
X58510765Y-37952572D01*
X58504804Y-37928773D01*
X58501204Y-37904505D01*
X58500000Y-37880001D01*
X58500000Y-37229999D01*
X58501204Y-37205495D01*
X58504804Y-37181227D01*
X58510765Y-37157428D01*
X58519030Y-37134329D01*
X58529520Y-37112150D01*
X58542132Y-37091107D01*
X58556747Y-37071401D01*
X58573223Y-37053223D01*
X58591401Y-37036747D01*
X58611107Y-37022132D01*
X58632150Y-37009520D01*
X58654329Y-36999030D01*
X58677428Y-36990765D01*
X58701227Y-36984804D01*
X58725495Y-36981204D01*
X58749999Y-36980000D01*
X59650001Y-36980000D01*
X59674505Y-36981204D01*
X59674505Y-36981204D01*
G37*
D12*
X59200000Y-37555000D03*
D11*
G36*
X131868705Y-109560604D02*
G01*
X131892973Y-109564204D01*
X131916772Y-109570165D01*
X131939871Y-109578430D01*
X131962050Y-109588920D01*
X131983093Y-109601532D01*
X132002799Y-109616147D01*
X132020977Y-109632623D01*
X132037453Y-109650801D01*
X132052068Y-109670507D01*
X132064680Y-109691550D01*
X132075170Y-109713729D01*
X132083435Y-109736828D01*
X132089396Y-109760627D01*
X132092996Y-109784895D01*
X132094200Y-109809399D01*
X132094200Y-110459401D01*
X132092996Y-110483905D01*
X132089396Y-110508173D01*
X132083435Y-110531972D01*
X132075170Y-110555071D01*
X132064680Y-110577250D01*
X132052068Y-110598293D01*
X132037453Y-110617999D01*
X132020977Y-110636177D01*
X132002799Y-110652653D01*
X131983093Y-110667268D01*
X131962050Y-110679880D01*
X131939871Y-110690370D01*
X131916772Y-110698635D01*
X131892973Y-110704596D01*
X131868705Y-110708196D01*
X131844201Y-110709400D01*
X130944199Y-110709400D01*
X130919695Y-110708196D01*
X130895427Y-110704596D01*
X130871628Y-110698635D01*
X130848529Y-110690370D01*
X130826350Y-110679880D01*
X130805307Y-110667268D01*
X130785601Y-110652653D01*
X130767423Y-110636177D01*
X130750947Y-110617999D01*
X130736332Y-110598293D01*
X130723720Y-110577250D01*
X130713230Y-110555071D01*
X130704965Y-110531972D01*
X130699004Y-110508173D01*
X130695404Y-110483905D01*
X130694200Y-110459401D01*
X130694200Y-109809399D01*
X130695404Y-109784895D01*
X130699004Y-109760627D01*
X130704965Y-109736828D01*
X130713230Y-109713729D01*
X130723720Y-109691550D01*
X130736332Y-109670507D01*
X130750947Y-109650801D01*
X130767423Y-109632623D01*
X130785601Y-109616147D01*
X130805307Y-109601532D01*
X130826350Y-109588920D01*
X130848529Y-109578430D01*
X130871628Y-109570165D01*
X130895427Y-109564204D01*
X130919695Y-109560604D01*
X130944199Y-109559400D01*
X131844201Y-109559400D01*
X131868705Y-109560604D01*
X131868705Y-109560604D01*
G37*
D12*
X131394200Y-110134400D03*
D11*
G36*
X131868705Y-107510604D02*
G01*
X131892973Y-107514204D01*
X131916772Y-107520165D01*
X131939871Y-107528430D01*
X131962050Y-107538920D01*
X131983093Y-107551532D01*
X132002799Y-107566147D01*
X132020977Y-107582623D01*
X132037453Y-107600801D01*
X132052068Y-107620507D01*
X132064680Y-107641550D01*
X132075170Y-107663729D01*
X132083435Y-107686828D01*
X132089396Y-107710627D01*
X132092996Y-107734895D01*
X132094200Y-107759399D01*
X132094200Y-108409401D01*
X132092996Y-108433905D01*
X132089396Y-108458173D01*
X132083435Y-108481972D01*
X132075170Y-108505071D01*
X132064680Y-108527250D01*
X132052068Y-108548293D01*
X132037453Y-108567999D01*
X132020977Y-108586177D01*
X132002799Y-108602653D01*
X131983093Y-108617268D01*
X131962050Y-108629880D01*
X131939871Y-108640370D01*
X131916772Y-108648635D01*
X131892973Y-108654596D01*
X131868705Y-108658196D01*
X131844201Y-108659400D01*
X130944199Y-108659400D01*
X130919695Y-108658196D01*
X130895427Y-108654596D01*
X130871628Y-108648635D01*
X130848529Y-108640370D01*
X130826350Y-108629880D01*
X130805307Y-108617268D01*
X130785601Y-108602653D01*
X130767423Y-108586177D01*
X130750947Y-108567999D01*
X130736332Y-108548293D01*
X130723720Y-108527250D01*
X130713230Y-108505071D01*
X130704965Y-108481972D01*
X130699004Y-108458173D01*
X130695404Y-108433905D01*
X130694200Y-108409401D01*
X130694200Y-107759399D01*
X130695404Y-107734895D01*
X130699004Y-107710627D01*
X130704965Y-107686828D01*
X130713230Y-107663729D01*
X130723720Y-107641550D01*
X130736332Y-107620507D01*
X130750947Y-107600801D01*
X130767423Y-107582623D01*
X130785601Y-107566147D01*
X130805307Y-107551532D01*
X130826350Y-107538920D01*
X130848529Y-107528430D01*
X130871628Y-107520165D01*
X130895427Y-107514204D01*
X130919695Y-107510604D01*
X130944199Y-107509400D01*
X131844201Y-107509400D01*
X131868705Y-107510604D01*
X131868705Y-107510604D01*
G37*
D12*
X131394200Y-108084400D03*
D11*
G36*
X162773505Y-118046204D02*
G01*
X162797773Y-118049804D01*
X162821572Y-118055765D01*
X162844671Y-118064030D01*
X162866850Y-118074520D01*
X162887893Y-118087132D01*
X162907599Y-118101747D01*
X162925777Y-118118223D01*
X162942253Y-118136401D01*
X162956868Y-118156107D01*
X162969480Y-118177150D01*
X162979970Y-118199329D01*
X162988235Y-118222428D01*
X162994196Y-118246227D01*
X162997796Y-118270495D01*
X162999000Y-118294999D01*
X162999000Y-119195001D01*
X162997796Y-119219505D01*
X162994196Y-119243773D01*
X162988235Y-119267572D01*
X162979970Y-119290671D01*
X162969480Y-119312850D01*
X162956868Y-119333893D01*
X162942253Y-119353599D01*
X162925777Y-119371777D01*
X162907599Y-119388253D01*
X162887893Y-119402868D01*
X162866850Y-119415480D01*
X162844671Y-119425970D01*
X162821572Y-119434235D01*
X162797773Y-119440196D01*
X162773505Y-119443796D01*
X162749001Y-119445000D01*
X162098999Y-119445000D01*
X162074495Y-119443796D01*
X162050227Y-119440196D01*
X162026428Y-119434235D01*
X162003329Y-119425970D01*
X161981150Y-119415480D01*
X161960107Y-119402868D01*
X161940401Y-119388253D01*
X161922223Y-119371777D01*
X161905747Y-119353599D01*
X161891132Y-119333893D01*
X161878520Y-119312850D01*
X161868030Y-119290671D01*
X161859765Y-119267572D01*
X161853804Y-119243773D01*
X161850204Y-119219505D01*
X161849000Y-119195001D01*
X161849000Y-118294999D01*
X161850204Y-118270495D01*
X161853804Y-118246227D01*
X161859765Y-118222428D01*
X161868030Y-118199329D01*
X161878520Y-118177150D01*
X161891132Y-118156107D01*
X161905747Y-118136401D01*
X161922223Y-118118223D01*
X161940401Y-118101747D01*
X161960107Y-118087132D01*
X161981150Y-118074520D01*
X162003329Y-118064030D01*
X162026428Y-118055765D01*
X162050227Y-118049804D01*
X162074495Y-118046204D01*
X162098999Y-118045000D01*
X162749001Y-118045000D01*
X162773505Y-118046204D01*
X162773505Y-118046204D01*
G37*
D12*
X162424000Y-118745000D03*
D11*
G36*
X164823505Y-118046204D02*
G01*
X164847773Y-118049804D01*
X164871572Y-118055765D01*
X164894671Y-118064030D01*
X164916850Y-118074520D01*
X164937893Y-118087132D01*
X164957599Y-118101747D01*
X164975777Y-118118223D01*
X164992253Y-118136401D01*
X165006868Y-118156107D01*
X165019480Y-118177150D01*
X165029970Y-118199329D01*
X165038235Y-118222428D01*
X165044196Y-118246227D01*
X165047796Y-118270495D01*
X165049000Y-118294999D01*
X165049000Y-119195001D01*
X165047796Y-119219505D01*
X165044196Y-119243773D01*
X165038235Y-119267572D01*
X165029970Y-119290671D01*
X165019480Y-119312850D01*
X165006868Y-119333893D01*
X164992253Y-119353599D01*
X164975777Y-119371777D01*
X164957599Y-119388253D01*
X164937893Y-119402868D01*
X164916850Y-119415480D01*
X164894671Y-119425970D01*
X164871572Y-119434235D01*
X164847773Y-119440196D01*
X164823505Y-119443796D01*
X164799001Y-119445000D01*
X164148999Y-119445000D01*
X164124495Y-119443796D01*
X164100227Y-119440196D01*
X164076428Y-119434235D01*
X164053329Y-119425970D01*
X164031150Y-119415480D01*
X164010107Y-119402868D01*
X163990401Y-119388253D01*
X163972223Y-119371777D01*
X163955747Y-119353599D01*
X163941132Y-119333893D01*
X163928520Y-119312850D01*
X163918030Y-119290671D01*
X163909765Y-119267572D01*
X163903804Y-119243773D01*
X163900204Y-119219505D01*
X163899000Y-119195001D01*
X163899000Y-118294999D01*
X163900204Y-118270495D01*
X163903804Y-118246227D01*
X163909765Y-118222428D01*
X163918030Y-118199329D01*
X163928520Y-118177150D01*
X163941132Y-118156107D01*
X163955747Y-118136401D01*
X163972223Y-118118223D01*
X163990401Y-118101747D01*
X164010107Y-118087132D01*
X164031150Y-118074520D01*
X164053329Y-118064030D01*
X164076428Y-118055765D01*
X164100227Y-118049804D01*
X164124495Y-118046204D01*
X164148999Y-118045000D01*
X164799001Y-118045000D01*
X164823505Y-118046204D01*
X164823505Y-118046204D01*
G37*
D12*
X164474000Y-118745000D03*
D14*
X122604600Y-111908200D03*
X128804600Y-111908200D03*
X122604600Y-108208200D03*
X128804600Y-108208200D03*
D15*
X65600000Y-43190000D03*
X67600000Y-43190000D03*
X65600000Y-41290000D03*
D16*
X67600000Y-41490000D03*
D17*
X151765000Y-119380000D03*
X150964900Y-119380000D03*
X150164800Y-119380000D03*
X149364700Y-119380000D03*
X148564600Y-119380000D03*
X147764500Y-119380000D03*
X152565100Y-119380000D03*
X153365200Y-119380000D03*
X154165300Y-119380000D03*
X154965400Y-119380000D03*
X155765500Y-119380000D03*
X151765000Y-107950000D03*
X150964900Y-107950000D03*
X150164800Y-107950000D03*
X149364700Y-107950000D03*
X148564600Y-107950000D03*
X147764500Y-107950000D03*
X152565100Y-107950000D03*
X153365200Y-107950000D03*
X154165300Y-107950000D03*
X154965400Y-107950000D03*
X155765500Y-107950000D03*
D18*
X146050000Y-113665000D03*
X157480000Y-113665000D03*
X146050000Y-112864900D03*
X157480000Y-112864900D03*
X157480000Y-112064800D03*
X146050000Y-112064800D03*
X146050000Y-111264700D03*
X157480000Y-111264700D03*
X157480000Y-110464600D03*
X146050000Y-110464600D03*
X146050000Y-109664500D03*
X157480000Y-109664500D03*
X157480000Y-114465100D03*
X146050000Y-114465100D03*
X146050000Y-115265200D03*
X157480000Y-115265200D03*
X157480000Y-116065300D03*
X146050000Y-116065300D03*
X146050000Y-116865400D03*
X157480000Y-116865400D03*
X157480000Y-117665500D03*
X146050000Y-117665500D03*
D11*
G36*
X66174505Y-44781204D02*
G01*
X66198773Y-44784804D01*
X66222572Y-44790765D01*
X66245671Y-44799030D01*
X66267850Y-44809520D01*
X66288893Y-44822132D01*
X66308599Y-44836747D01*
X66326777Y-44853223D01*
X66343253Y-44871401D01*
X66357868Y-44891107D01*
X66370480Y-44912150D01*
X66380970Y-44934329D01*
X66389235Y-44957428D01*
X66395196Y-44981227D01*
X66398796Y-45005495D01*
X66400000Y-45029999D01*
X66400000Y-45680001D01*
X66398796Y-45704505D01*
X66395196Y-45728773D01*
X66389235Y-45752572D01*
X66380970Y-45775671D01*
X66370480Y-45797850D01*
X66357868Y-45818893D01*
X66343253Y-45838599D01*
X66326777Y-45856777D01*
X66308599Y-45873253D01*
X66288893Y-45887868D01*
X66267850Y-45900480D01*
X66245671Y-45910970D01*
X66222572Y-45919235D01*
X66198773Y-45925196D01*
X66174505Y-45928796D01*
X66150001Y-45930000D01*
X65249999Y-45930000D01*
X65225495Y-45928796D01*
X65201227Y-45925196D01*
X65177428Y-45919235D01*
X65154329Y-45910970D01*
X65132150Y-45900480D01*
X65111107Y-45887868D01*
X65091401Y-45873253D01*
X65073223Y-45856777D01*
X65056747Y-45838599D01*
X65042132Y-45818893D01*
X65029520Y-45797850D01*
X65019030Y-45775671D01*
X65010765Y-45752572D01*
X65004804Y-45728773D01*
X65001204Y-45704505D01*
X65000000Y-45680001D01*
X65000000Y-45029999D01*
X65001204Y-45005495D01*
X65004804Y-44981227D01*
X65010765Y-44957428D01*
X65019030Y-44934329D01*
X65029520Y-44912150D01*
X65042132Y-44891107D01*
X65056747Y-44871401D01*
X65073223Y-44853223D01*
X65091401Y-44836747D01*
X65111107Y-44822132D01*
X65132150Y-44809520D01*
X65154329Y-44799030D01*
X65177428Y-44790765D01*
X65201227Y-44784804D01*
X65225495Y-44781204D01*
X65249999Y-44780000D01*
X66150001Y-44780000D01*
X66174505Y-44781204D01*
X66174505Y-44781204D01*
G37*
D12*
X65700000Y-45355000D03*
D11*
G36*
X66174505Y-46831204D02*
G01*
X66198773Y-46834804D01*
X66222572Y-46840765D01*
X66245671Y-46849030D01*
X66267850Y-46859520D01*
X66288893Y-46872132D01*
X66308599Y-46886747D01*
X66326777Y-46903223D01*
X66343253Y-46921401D01*
X66357868Y-46941107D01*
X66370480Y-46962150D01*
X66380970Y-46984329D01*
X66389235Y-47007428D01*
X66395196Y-47031227D01*
X66398796Y-47055495D01*
X66400000Y-47079999D01*
X66400000Y-47730001D01*
X66398796Y-47754505D01*
X66395196Y-47778773D01*
X66389235Y-47802572D01*
X66380970Y-47825671D01*
X66370480Y-47847850D01*
X66357868Y-47868893D01*
X66343253Y-47888599D01*
X66326777Y-47906777D01*
X66308599Y-47923253D01*
X66288893Y-47937868D01*
X66267850Y-47950480D01*
X66245671Y-47960970D01*
X66222572Y-47969235D01*
X66198773Y-47975196D01*
X66174505Y-47978796D01*
X66150001Y-47980000D01*
X65249999Y-47980000D01*
X65225495Y-47978796D01*
X65201227Y-47975196D01*
X65177428Y-47969235D01*
X65154329Y-47960970D01*
X65132150Y-47950480D01*
X65111107Y-47937868D01*
X65091401Y-47923253D01*
X65073223Y-47906777D01*
X65056747Y-47888599D01*
X65042132Y-47868893D01*
X65029520Y-47847850D01*
X65019030Y-47825671D01*
X65010765Y-47802572D01*
X65004804Y-47778773D01*
X65001204Y-47754505D01*
X65000000Y-47730001D01*
X65000000Y-47079999D01*
X65001204Y-47055495D01*
X65004804Y-47031227D01*
X65010765Y-47007428D01*
X65019030Y-46984329D01*
X65029520Y-46962150D01*
X65042132Y-46941107D01*
X65056747Y-46921401D01*
X65073223Y-46903223D01*
X65091401Y-46886747D01*
X65111107Y-46872132D01*
X65132150Y-46859520D01*
X65154329Y-46849030D01*
X65177428Y-46840765D01*
X65201227Y-46834804D01*
X65225495Y-46831204D01*
X65249999Y-46830000D01*
X66150001Y-46830000D01*
X66174505Y-46831204D01*
X66174505Y-46831204D01*
G37*
D12*
X65700000Y-47405000D03*
D11*
G36*
X68147505Y-46828704D02*
G01*
X68171773Y-46832304D01*
X68195572Y-46838265D01*
X68218671Y-46846530D01*
X68240850Y-46857020D01*
X68261893Y-46869632D01*
X68281599Y-46884247D01*
X68299777Y-46900723D01*
X68316253Y-46918901D01*
X68330868Y-46938607D01*
X68343480Y-46959650D01*
X68353970Y-46981829D01*
X68362235Y-47004928D01*
X68368196Y-47028727D01*
X68371796Y-47052995D01*
X68373000Y-47077499D01*
X68373000Y-47727501D01*
X68371796Y-47752005D01*
X68368196Y-47776273D01*
X68362235Y-47800072D01*
X68353970Y-47823171D01*
X68343480Y-47845350D01*
X68330868Y-47866393D01*
X68316253Y-47886099D01*
X68299777Y-47904277D01*
X68281599Y-47920753D01*
X68261893Y-47935368D01*
X68240850Y-47947980D01*
X68218671Y-47958470D01*
X68195572Y-47966735D01*
X68171773Y-47972696D01*
X68147505Y-47976296D01*
X68123001Y-47977500D01*
X67222999Y-47977500D01*
X67198495Y-47976296D01*
X67174227Y-47972696D01*
X67150428Y-47966735D01*
X67127329Y-47958470D01*
X67105150Y-47947980D01*
X67084107Y-47935368D01*
X67064401Y-47920753D01*
X67046223Y-47904277D01*
X67029747Y-47886099D01*
X67015132Y-47866393D01*
X67002520Y-47845350D01*
X66992030Y-47823171D01*
X66983765Y-47800072D01*
X66977804Y-47776273D01*
X66974204Y-47752005D01*
X66973000Y-47727501D01*
X66973000Y-47077499D01*
X66974204Y-47052995D01*
X66977804Y-47028727D01*
X66983765Y-47004928D01*
X66992030Y-46981829D01*
X67002520Y-46959650D01*
X67015132Y-46938607D01*
X67029747Y-46918901D01*
X67046223Y-46900723D01*
X67064401Y-46884247D01*
X67084107Y-46869632D01*
X67105150Y-46857020D01*
X67127329Y-46846530D01*
X67150428Y-46838265D01*
X67174227Y-46832304D01*
X67198495Y-46828704D01*
X67222999Y-46827500D01*
X68123001Y-46827500D01*
X68147505Y-46828704D01*
X68147505Y-46828704D01*
G37*
D12*
X67673000Y-47402500D03*
D11*
G36*
X68147505Y-44778704D02*
G01*
X68171773Y-44782304D01*
X68195572Y-44788265D01*
X68218671Y-44796530D01*
X68240850Y-44807020D01*
X68261893Y-44819632D01*
X68281599Y-44834247D01*
X68299777Y-44850723D01*
X68316253Y-44868901D01*
X68330868Y-44888607D01*
X68343480Y-44909650D01*
X68353970Y-44931829D01*
X68362235Y-44954928D01*
X68368196Y-44978727D01*
X68371796Y-45002995D01*
X68373000Y-45027499D01*
X68373000Y-45677501D01*
X68371796Y-45702005D01*
X68368196Y-45726273D01*
X68362235Y-45750072D01*
X68353970Y-45773171D01*
X68343480Y-45795350D01*
X68330868Y-45816393D01*
X68316253Y-45836099D01*
X68299777Y-45854277D01*
X68281599Y-45870753D01*
X68261893Y-45885368D01*
X68240850Y-45897980D01*
X68218671Y-45908470D01*
X68195572Y-45916735D01*
X68171773Y-45922696D01*
X68147505Y-45926296D01*
X68123001Y-45927500D01*
X67222999Y-45927500D01*
X67198495Y-45926296D01*
X67174227Y-45922696D01*
X67150428Y-45916735D01*
X67127329Y-45908470D01*
X67105150Y-45897980D01*
X67084107Y-45885368D01*
X67064401Y-45870753D01*
X67046223Y-45854277D01*
X67029747Y-45836099D01*
X67015132Y-45816393D01*
X67002520Y-45795350D01*
X66992030Y-45773171D01*
X66983765Y-45750072D01*
X66977804Y-45726273D01*
X66974204Y-45702005D01*
X66973000Y-45677501D01*
X66973000Y-45027499D01*
X66974204Y-45002995D01*
X66977804Y-44978727D01*
X66983765Y-44954928D01*
X66992030Y-44931829D01*
X67002520Y-44909650D01*
X67015132Y-44888607D01*
X67029747Y-44868901D01*
X67046223Y-44850723D01*
X67064401Y-44834247D01*
X67084107Y-44819632D01*
X67105150Y-44807020D01*
X67127329Y-44796530D01*
X67150428Y-44788265D01*
X67174227Y-44782304D01*
X67198495Y-44778704D01*
X67222999Y-44777500D01*
X68123001Y-44777500D01*
X68147505Y-44778704D01*
X68147505Y-44778704D01*
G37*
D12*
X67673000Y-45352500D03*
D11*
G36*
X73817505Y-38023704D02*
G01*
X73841773Y-38027304D01*
X73865572Y-38033265D01*
X73888671Y-38041530D01*
X73910850Y-38052020D01*
X73931893Y-38064632D01*
X73951599Y-38079247D01*
X73969777Y-38095723D01*
X73986253Y-38113901D01*
X74000868Y-38133607D01*
X74013480Y-38154650D01*
X74023970Y-38176829D01*
X74032235Y-38199928D01*
X74038196Y-38223727D01*
X74041796Y-38247995D01*
X74043000Y-38272499D01*
X74043000Y-38922501D01*
X74041796Y-38947005D01*
X74038196Y-38971273D01*
X74032235Y-38995072D01*
X74023970Y-39018171D01*
X74013480Y-39040350D01*
X74000868Y-39061393D01*
X73986253Y-39081099D01*
X73969777Y-39099277D01*
X73951599Y-39115753D01*
X73931893Y-39130368D01*
X73910850Y-39142980D01*
X73888671Y-39153470D01*
X73865572Y-39161735D01*
X73841773Y-39167696D01*
X73817505Y-39171296D01*
X73793001Y-39172500D01*
X72892999Y-39172500D01*
X72868495Y-39171296D01*
X72844227Y-39167696D01*
X72820428Y-39161735D01*
X72797329Y-39153470D01*
X72775150Y-39142980D01*
X72754107Y-39130368D01*
X72734401Y-39115753D01*
X72716223Y-39099277D01*
X72699747Y-39081099D01*
X72685132Y-39061393D01*
X72672520Y-39040350D01*
X72662030Y-39018171D01*
X72653765Y-38995072D01*
X72647804Y-38971273D01*
X72644204Y-38947005D01*
X72643000Y-38922501D01*
X72643000Y-38272499D01*
X72644204Y-38247995D01*
X72647804Y-38223727D01*
X72653765Y-38199928D01*
X72662030Y-38176829D01*
X72672520Y-38154650D01*
X72685132Y-38133607D01*
X72699747Y-38113901D01*
X72716223Y-38095723D01*
X72734401Y-38079247D01*
X72754107Y-38064632D01*
X72775150Y-38052020D01*
X72797329Y-38041530D01*
X72820428Y-38033265D01*
X72844227Y-38027304D01*
X72868495Y-38023704D01*
X72892999Y-38022500D01*
X73793001Y-38022500D01*
X73817505Y-38023704D01*
X73817505Y-38023704D01*
G37*
D12*
X73343000Y-38597500D03*
D11*
G36*
X73817505Y-40073704D02*
G01*
X73841773Y-40077304D01*
X73865572Y-40083265D01*
X73888671Y-40091530D01*
X73910850Y-40102020D01*
X73931893Y-40114632D01*
X73951599Y-40129247D01*
X73969777Y-40145723D01*
X73986253Y-40163901D01*
X74000868Y-40183607D01*
X74013480Y-40204650D01*
X74023970Y-40226829D01*
X74032235Y-40249928D01*
X74038196Y-40273727D01*
X74041796Y-40297995D01*
X74043000Y-40322499D01*
X74043000Y-40972501D01*
X74041796Y-40997005D01*
X74038196Y-41021273D01*
X74032235Y-41045072D01*
X74023970Y-41068171D01*
X74013480Y-41090350D01*
X74000868Y-41111393D01*
X73986253Y-41131099D01*
X73969777Y-41149277D01*
X73951599Y-41165753D01*
X73931893Y-41180368D01*
X73910850Y-41192980D01*
X73888671Y-41203470D01*
X73865572Y-41211735D01*
X73841773Y-41217696D01*
X73817505Y-41221296D01*
X73793001Y-41222500D01*
X72892999Y-41222500D01*
X72868495Y-41221296D01*
X72844227Y-41217696D01*
X72820428Y-41211735D01*
X72797329Y-41203470D01*
X72775150Y-41192980D01*
X72754107Y-41180368D01*
X72734401Y-41165753D01*
X72716223Y-41149277D01*
X72699747Y-41131099D01*
X72685132Y-41111393D01*
X72672520Y-41090350D01*
X72662030Y-41068171D01*
X72653765Y-41045072D01*
X72647804Y-41021273D01*
X72644204Y-40997005D01*
X72643000Y-40972501D01*
X72643000Y-40322499D01*
X72644204Y-40297995D01*
X72647804Y-40273727D01*
X72653765Y-40249928D01*
X72662030Y-40226829D01*
X72672520Y-40204650D01*
X72685132Y-40183607D01*
X72699747Y-40163901D01*
X72716223Y-40145723D01*
X72734401Y-40129247D01*
X72754107Y-40114632D01*
X72775150Y-40102020D01*
X72797329Y-40091530D01*
X72820428Y-40083265D01*
X72844227Y-40077304D01*
X72868495Y-40073704D01*
X72892999Y-40072500D01*
X73793001Y-40072500D01*
X73817505Y-40073704D01*
X73817505Y-40073704D01*
G37*
D12*
X73343000Y-40647500D03*
D11*
G36*
X71785505Y-40055704D02*
G01*
X71809773Y-40059304D01*
X71833572Y-40065265D01*
X71856671Y-40073530D01*
X71878850Y-40084020D01*
X71899893Y-40096632D01*
X71919599Y-40111247D01*
X71937777Y-40127723D01*
X71954253Y-40145901D01*
X71968868Y-40165607D01*
X71981480Y-40186650D01*
X71991970Y-40208829D01*
X72000235Y-40231928D01*
X72006196Y-40255727D01*
X72009796Y-40279995D01*
X72011000Y-40304499D01*
X72011000Y-40954501D01*
X72009796Y-40979005D01*
X72006196Y-41003273D01*
X72000235Y-41027072D01*
X71991970Y-41050171D01*
X71981480Y-41072350D01*
X71968868Y-41093393D01*
X71954253Y-41113099D01*
X71937777Y-41131277D01*
X71919599Y-41147753D01*
X71899893Y-41162368D01*
X71878850Y-41174980D01*
X71856671Y-41185470D01*
X71833572Y-41193735D01*
X71809773Y-41199696D01*
X71785505Y-41203296D01*
X71761001Y-41204500D01*
X70860999Y-41204500D01*
X70836495Y-41203296D01*
X70812227Y-41199696D01*
X70788428Y-41193735D01*
X70765329Y-41185470D01*
X70743150Y-41174980D01*
X70722107Y-41162368D01*
X70702401Y-41147753D01*
X70684223Y-41131277D01*
X70667747Y-41113099D01*
X70653132Y-41093393D01*
X70640520Y-41072350D01*
X70630030Y-41050171D01*
X70621765Y-41027072D01*
X70615804Y-41003273D01*
X70612204Y-40979005D01*
X70611000Y-40954501D01*
X70611000Y-40304499D01*
X70612204Y-40279995D01*
X70615804Y-40255727D01*
X70621765Y-40231928D01*
X70630030Y-40208829D01*
X70640520Y-40186650D01*
X70653132Y-40165607D01*
X70667747Y-40145901D01*
X70684223Y-40127723D01*
X70702401Y-40111247D01*
X70722107Y-40096632D01*
X70743150Y-40084020D01*
X70765329Y-40073530D01*
X70788428Y-40065265D01*
X70812227Y-40059304D01*
X70836495Y-40055704D01*
X70860999Y-40054500D01*
X71761001Y-40054500D01*
X71785505Y-40055704D01*
X71785505Y-40055704D01*
G37*
D12*
X71311000Y-40629500D03*
D11*
G36*
X71785910Y-38005702D02*
G01*
X71810135Y-38009295D01*
X71833891Y-38015246D01*
X71856949Y-38023496D01*
X71879087Y-38033967D01*
X71900093Y-38046557D01*
X71919763Y-38061145D01*
X71937908Y-38077592D01*
X71954355Y-38095737D01*
X71968943Y-38115407D01*
X71981533Y-38136413D01*
X71992004Y-38158551D01*
X72000254Y-38181609D01*
X72006205Y-38205365D01*
X72009798Y-38229590D01*
X72011000Y-38254050D01*
X72011000Y-38904950D01*
X72009798Y-38929410D01*
X72006205Y-38953635D01*
X72000254Y-38977391D01*
X71992004Y-39000449D01*
X71981533Y-39022587D01*
X71968943Y-39043593D01*
X71954355Y-39063263D01*
X71937908Y-39081408D01*
X71919763Y-39097855D01*
X71900093Y-39112443D01*
X71879087Y-39125033D01*
X71856949Y-39135504D01*
X71833891Y-39143754D01*
X71810135Y-39149705D01*
X71785910Y-39153298D01*
X71761450Y-39154500D01*
X70860550Y-39154500D01*
X70836090Y-39153298D01*
X70811865Y-39149705D01*
X70788109Y-39143754D01*
X70765051Y-39135504D01*
X70742913Y-39125033D01*
X70721907Y-39112443D01*
X70702237Y-39097855D01*
X70684092Y-39081408D01*
X70667645Y-39063263D01*
X70653057Y-39043593D01*
X70640467Y-39022587D01*
X70629996Y-39000449D01*
X70621746Y-38977391D01*
X70615795Y-38953635D01*
X70612202Y-38929410D01*
X70611000Y-38904950D01*
X70611000Y-38254050D01*
X70612202Y-38229590D01*
X70615795Y-38205365D01*
X70621746Y-38181609D01*
X70629996Y-38158551D01*
X70640467Y-38136413D01*
X70653057Y-38115407D01*
X70667645Y-38095737D01*
X70684092Y-38077592D01*
X70702237Y-38061145D01*
X70721907Y-38046557D01*
X70742913Y-38033967D01*
X70765051Y-38023496D01*
X70788109Y-38015246D01*
X70811865Y-38009295D01*
X70836090Y-38005702D01*
X70860550Y-38004500D01*
X71761450Y-38004500D01*
X71785910Y-38005702D01*
X71785910Y-38005702D01*
G37*
D12*
X71311000Y-38579500D03*
D19*
X151316732Y-104919214D03*
D11*
G36*
X150326783Y-104848503D02*
G01*
X151246021Y-103929265D01*
X152306681Y-104989925D01*
X151387443Y-105909163D01*
X150326783Y-104848503D01*
X150326783Y-104848503D01*
G37*
D19*
X149690386Y-103292868D03*
D11*
G36*
X148700437Y-103222157D02*
G01*
X149619675Y-102302919D01*
X150680335Y-103363579D01*
X149761097Y-104282817D01*
X148700437Y-103222157D01*
X148700437Y-103222157D01*
G37*
D19*
X152518814Y-103717132D03*
D11*
G36*
X151528865Y-103646421D02*
G01*
X152448103Y-102727183D01*
X153508763Y-103787843D01*
X152589525Y-104707081D01*
X151528865Y-103646421D01*
X151528865Y-103646421D01*
G37*
D19*
X150892468Y-102090786D03*
D11*
G36*
X149902519Y-102020075D02*
G01*
X150821757Y-101100837D01*
X151882417Y-102161497D01*
X150963179Y-103080735D01*
X149902519Y-102020075D01*
X149902519Y-102020075D01*
G37*
M02*
