G04 #@! TF.GenerationSoftware,KiCad,Pcbnew,(5.1.0)-1*
G04 #@! TF.CreationDate,2019-03-27T22:24:01+02:00*
G04 #@! TF.ProjectId,PROJECT,50524f4a-4543-4542-9e6b-696361645f70,rev?*
G04 #@! TF.SameCoordinates,Original*
G04 #@! TF.FileFunction,Profile,NP*
%FSLAX46Y46*%
G04 Gerber Fmt 4.6, Leading zero omitted, Abs format (unit mm)*
G04 Created by KiCad (PCBNEW (5.1.0)-1) date 2019-03-27 22:24:01*
%MOMM*%
%LPD*%
G04 APERTURE LIST*
%ADD10C,0.300000*%
G04 APERTURE END LIST*
D10*
X49999900Y-123502540D02*
X330999900Y-123502540D01*
X330999900Y-28902540D02*
X72199900Y-28902540D01*
X49999900Y-28902540D02*
G75*
G03X47999900Y-30902540I0J-2000000D01*
G01*
X47999900Y-121502540D02*
G75*
G03X49999900Y-123502540I2000000J0D01*
G01*
X330999900Y-123502540D02*
G75*
G03X332999900Y-121502540I0J2000000D01*
G01*
X332999900Y-30902540D02*
G75*
G03X330999900Y-28902540I-2000000J0D01*
G01*
X47999900Y-121502540D02*
X47999900Y-86802540D01*
X47999900Y-86802540D02*
X51799900Y-86802540D01*
X53199900Y-85402540D02*
G75*
G03X51799900Y-84002540I-1400000J0D01*
G01*
X51799900Y-84002540D02*
X47999900Y-84002540D01*
X47999900Y-84002540D02*
X47999900Y-30902540D01*
X327799900Y-85402540D02*
G75*
G02X329199900Y-84002540I1400000J0D01*
G01*
X329199900Y-86802540D02*
G75*
G02X327799900Y-85402540I0J1400000D01*
G01*
X332999900Y-86802540D02*
X332999900Y-121502540D01*
X332999900Y-84002540D02*
X332999900Y-30902540D01*
X329199900Y-86802540D02*
X332999900Y-86802540D01*
X329199900Y-84002540D02*
X332999900Y-84002540D01*
X51799900Y-86802540D02*
G75*
G03X53199900Y-85402540I0J1400000D01*
G01*
X60699900Y-28402540D02*
X71699900Y-28402540D01*
X60199900Y-28902540D02*
G75*
G03X60699900Y-28402540I0J500000D01*
G01*
X71699900Y-28402540D02*
G75*
G03X72199900Y-28902540I500000J0D01*
G01*
X49999900Y-28902540D02*
X60199900Y-28902540D01*
M02*
